<?xml version="1.0" encoding="UTF-8" standalone="no"?>
<svg
   xmlns:dc="http://purl.org/dc/elements/1.1/"
   xmlns:cc="http://creativecommons.org/ns#"
   xmlns:rdf="http://www.w3.org/1999/02/22-rdf-syntax-ns#"
   xmlns:svg="http://www.w3.org/2000/svg"
   xmlns="http://www.w3.org/2000/svg"
   xmlns:sodipodi="http://sodipodi.sourceforge.net/DTD/sodipodi-0.dtd"
   xmlns:inkscape="http://www.inkscape.org/namespaces/inkscape"
   width="470.56812"
   height="316.42996"
   id="svg3165"
   version="1.1"
   inkscape:version="0.48.5 r10040"
   sodipodi:docname="ladoshki1-m.dxf">
  <metadata
     id="metadata3313">
    <rdf:RDF>
      <cc:Work
         rdf:about="">
        <dc:format>image/svg+xml</dc:format>
        <dc:type
           rdf:resource="http://purl.org/dc/dcmitype/StillImage" />
        <dc:title></dc:title>
      </cc:Work>
    </rdf:RDF>
  </metadata>
  <sodipodi:namedview
     pagecolor="#ffffff"
     bordercolor="#666666"
     borderopacity="1"
     objecttolerance="10"
     gridtolerance="10"
     guidetolerance="10"
     inkscape:pageopacity="0"
     inkscape:pageshadow="2"
     inkscape:window-width="640"
     inkscape:window-height="480"
     id="namedview3311"
     showgrid="false"
     fit-margin-top="0"
     fit-margin-left="0"
     fit-margin-right="0"
     fit-margin-bottom="0"
     inkscape:zoom="0.63429569"
     inkscape:cx="346.40222"
     inkscape:cy="197.09905"
     inkscape:window-x="0"
     inkscape:window-y="0"
     inkscape:window-maximized="0"
     inkscape:current-layer="g3185" />
  <desc
     id="desc3167">C:\OpenServer\domains\modular\design\ver1\wood\ladoshki1-m.dxf - scale = 1.000000</desc>
  <defs
     id="defs3169">
    <marker
       refY="0"
       refX="0"
       style="overflow:visible"
       id="DistanceX"
       orient="auto">
      <path
         style="stroke:#000000;stroke-width:0.5"
         d="M 3,-3 -3,3 M 0,-5 0,5"
         id="path3172"
         inkscape:connector-curvature="0" />
    </marker>
    <pattern
       height="8"
       width="8"
       patternUnits="userSpaceOnUse"
       y="0"
       x="0"
       id="Hatch">
      <path
         linecap="square"
         stroke="#000000"
         stroke-width="0.25"
         d="M8 4 l-4,4"
         id="path3175" />
      <path
         linecap="square"
         stroke="#000000"
         stroke-width="0.25"
         d="M6 2 l-4,4"
         id="path3177" />
      <path
         linecap="square"
         stroke="#000000"
         stroke-width="0.25"
         d="M4 0 l-4,4"
         id="path3179" />
    </pattern>
    <symbol
       id="*MODEL_SPACE" />
    <symbol
       id="*PAPER_SPACE" />
  </defs>
  <g
     inkscape:label="0"
     inkscape:groupmode="layer"
     id="g3183"
     transform="translate(-27.315,-46.501409)" />
  <g
     inkscape:label="Layer_1"
     inkscape:groupmode="layer"
     id="g3185"
     transform="translate(-27.315,-46.501409)">
    <path
       style="fill:none;stroke:#000000"
       d="m 130.63631,250.86878 54.42521,0 0,44.85739 -54.42521,0 0,-44.85739"
       id="path3187"
       inkscape:connector-curvature="0" />
    <path
       style="fill:none;stroke:#000000"
       d="m 123.53454,239.73502 -5.9e-4,10.64679 -7.40038,8.8e-4 0,45.8634 7.43187,0.001 0,10.61234 68.56686,0 0,-10.6475 7.43196,0 0,-45.86473 -7.4007,0 3.9e-4,-10.61126 -68.62941,-9.2e-4"
       id="path3189"
       inkscape:connector-curvature="0" />
    <path
       style="fill:none;stroke:#000000"
       d="m 292.15846,193.76266 17.14784,0 0,17.15499 -17.14784,0 0,-17.15499"
       id="path3191"
       inkscape:connector-curvature="0" />
    <path
       style="fill:none;stroke:#000000"
       d="m 266.418,168.78067 -5.8e-4,10.64679 -7.40039,8.8e-4 0,45.85986 7.43188,0.001 0,10.61234 68.56686,1.5e-4 0,-10.64765 7.43196,0 0,-45.86119 -7.40071,0 4e-4,-10.61422 -68.62942,0.002"
       id="path3193"
       inkscape:connector-curvature="0" />
    <path
       style="fill:none;stroke:#000000"
       d="m 30.340881,216.08932 0.334889,141.65873 15.21815,-2.9e-4 0.111632,-10.45714 67.513918,0 0,10.45721 180.66554,-4.7e-4 0,-10.45674 67.70189,-0.0627 0.0777,10.6603 15.16438,-0.14085 0.002,-141.14504 -8.68174,-5.41841 -37.77929,65.77253 -8.54152,-4.9524 -4.06766,6.32793 -6.52851,3.85514 4.61947,8.36763 -58.44195,33.90663 -5.07523,-8.54941 -7.06327,3.75736 -8.09056,0.26628 0.18121,9.57625 -67.42099,-0.1174 -0.15758,-9.69034 -8.32449,6.1e-4 -7.39769,-3.86697 -5.03927,8.22174 -58.659209,-33.46782 4.852279,-8.36499 -6.469519,-3.81402 -4.31533,-6.10068 -8.091531,4.65313 -38.212678,-65.62484 -8.085041,4.74904"
       id="path3195"
       inkscape:connector-curvature="0" />
    <path
       style="fill:none;stroke:#000000"
       d="m 327.26839,305.65419 35.07779,0 0,17.36045 -35.07779,0 0,-17.36045"
       id="path3197"
       inkscape:connector-curvature="0" />
    <path
       style="fill:none;stroke:#000000"
       d="m 497.38312,186.5892 c 0,14.80949 -12.00741,26.81497 -26.8193,26.81497"
       id="path3199"
       inkscape:connector-curvature="0" />
    <path
       style="fill:none;stroke:#000000"
       d="m 470.56382,213.40417 c -14.81189,0 -26.81929,-12.00548 -26.81929,-26.81497"
       id="path3201"
       inkscape:connector-curvature="0" />
    <path
       style="fill:none;stroke:#000000"
       d="m 443.74453,186.5892 c 0,-14.80951 12.0074,-26.81497 26.81929,-26.81497"
       id="path3203"
       inkscape:connector-curvature="0" />
    <path
       style="fill:none;stroke:#000000"
       d="m 470.56382,159.77423 c 14.81189,0 26.8193,12.00546 26.8193,26.81497"
       id="path3205"
       inkscape:connector-curvature="0" />
    <path
       style="fill:none;stroke:#000000"
       d="m 80.343099,305.65419 -35.07779,0 0,17.36045 35.07779,0 0,-17.36045"
       id="path3207"
       inkscape:connector-curvature="0" />
    <path
       style="fill:none;stroke:#000000"
       d="m 497.38312,186.5892 0,0"
       id="path3209"
       inkscape:connector-curvature="0" />
    <path
       style="fill:none;stroke:#000000"
       d="m 465.4992,181.52457 10.12925,0 0,10.12926 -10.12925,0 0,-10.12926"
       id="path3211"
       inkscape:connector-curvature="0" />
    <path
       style="fill:none;stroke:#000000"
       d="m 394.61719,230.92081 0,11.0625 -2.125,0 0,17.0625 15.40625,0 0,-17.0625 -2.15625,0 0,-11.0625 -11.125,0 0,0"
       id="path3213"
       inkscape:connector-curvature="0" />
    <path
       style="fill:none;stroke:#000000"
       d="m 93.506591,193.37754 17.147839,0 0,17.15499 -17.147839,0 0,-17.15499"
       id="path3215"
       inkscape:connector-curvature="0" />
    <path
       style="fill:none;stroke:#000000"
       d="m 67.766131,168.39555 -5.81e-4,10.64679 -7.400389,8.8e-4 0,45.85986 7.431878,0.001 0,10.61234 68.566861,1.5e-4 0,-10.64765 7.43196,0 0,-45.86119 -7.40071,0 4e-4,-10.61422 -68.629419,0.002"
       id="path3217"
       inkscape:connector-curvature="0" />
    <path
       style="fill:none;stroke:#000000"
       d="m 173.43243,179.26478 54.4252,0 0,44.85739 -54.4252,0 0,-44.85739"
       id="path3219"
       inkscape:connector-curvature="0" />
    <path
       style="fill:none;stroke:#000000"
       d="m 166.33065,168.13102 -5.8e-4,10.64679 -7.4004,8.8e-4 0,45.8634 7.43189,0.001 0,10.61234 68.56686,0 0,-10.6475 7.43196,0 0,-45.86473 -7.40071,0 4e-4,-10.61126 -68.62942,-9.2e-4"
       id="path3221"
       inkscape:connector-curvature="0" />
    <path
       style="fill:none;stroke:#000000"
       d="m 131.43481,107.75531 54.4252,0 0,44.85739 -54.4252,0 0,-44.85739"
       id="path3223"
       inkscape:connector-curvature="0" />
    <path
       style="fill:none;stroke:#000000"
       d="m 124.33303,96.621552 -5.8e-4,10.646788 -7.40039,8.8e-4 0,45.8634 7.43188,0.001 0,10.61234 68.56686,0 0,-10.6475 7.43196,0 0,-45.86473 -7.40071,0 4e-4,-10.611261 -68.62942,-9.17e-4"
       id="path3225"
       inkscape:connector-curvature="0" />
    <path
       style="fill:none;stroke:#000000"
       d="m 218.67051,109.33398 54.4252,0 0,44.85739 -54.4252,0 0,-44.85739"
       id="path3227"
       inkscape:connector-curvature="0" />
    <path
       style="fill:none;stroke:#000000"
       d="m 211.56873,98.200219 -5.9e-4,10.646791 -7.40038,8.8e-4 0,45.8634 7.43187,0.001 0,10.61234 68.56687,0 0,-10.6475 7.43195,0 0,-45.86473 -7.40071,0 4e-4,-10.61126 -68.62941,-9.21e-4"
       id="path3229"
       inkscape:connector-curvature="0" />
    <path
       style="fill:none;stroke:#000000"
       d="m 218.47532,251.78491 54.4252,0 0,44.85739 -54.4252,0 0,-44.85739"
       id="path3231"
       inkscape:connector-curvature="0" />
    <path
       style="fill:none;stroke:#000000"
       d="m 437.17348,185.74423 c 0,14.80949 -12.00741,26.81497 -26.8193,26.81497"
       id="path3233"
       inkscape:connector-curvature="0" />
    <path
       style="fill:none;stroke:#000000"
       d="m 410.35418,212.5592 c -14.81189,0 -26.81929,-12.00548 -26.81929,-26.81497"
       id="path3235"
       inkscape:connector-curvature="0" />
    <path
       style="fill:none;stroke:#000000"
       d="m 383.53489,185.74423 c 0,-14.80951 12.0074,-26.81497 26.81929,-26.81497"
       id="path3237"
       inkscape:connector-curvature="0" />
    <path
       style="fill:none;stroke:#000000"
       d="m 410.35418,158.92926 c 14.81189,0 26.8193,12.00546 26.8193,26.81497"
       id="path3239"
       inkscape:connector-curvature="0" />
    <path
       style="fill:none;stroke:#000000"
       d="m 211.37354,240.65115 -5.8e-4,10.64679 -7.40039,8.8e-4 0,45.8634 7.43188,9.9e-4 0,10.61235 68.56686,0 0,-10.6475 7.43196,0 0,-45.86473 -7.40071,0 4e-4,-10.61126 -68.62942,-9.2e-4"
       id="path3241"
       inkscape:connector-curvature="0" />
    <path
       style="fill:none;stroke:#000000"
       d="m 437.17348,185.74423 0,0"
       id="path3243"
       inkscape:connector-curvature="0" />
    <path
       style="fill:none;stroke:#000000"
       d="m 405.28956,180.6796 10.12925,0 0,10.12926 -10.12925,0 0,-10.12926"
       id="path3245"
       inkscape:connector-curvature="0" />
    <path
       style="fill:none;stroke:#000000"
       d="m 464.52484,132.28905 c 0,14.80949 -12.00741,26.81497 -26.81929,26.81497"
       id="path3247"
       inkscape:connector-curvature="0" />
    <path
       style="fill:none;stroke:#000000"
       d="m 437.70555,159.10402 c -14.81189,0 -26.8193,-12.00548 -26.8193,-26.81497"
       id="path3249"
       inkscape:connector-curvature="0" />
    <path
       style="fill:none;stroke:#000000"
       d="m 410.88625,132.28905 c 0,-14.80951 12.00741,-26.81497 26.8193,-26.81497"
       id="path3251"
       inkscape:connector-curvature="0" />
    <path
       style="fill:none;stroke:#000000"
       d="m 437.70555,105.47408 c 14.81188,0 26.81929,12.00546 26.81929,26.81497"
       id="path3253"
       inkscape:connector-curvature="0" />
    <path
       style="fill:none;stroke:#000000"
       d="m 424.07646,230.07584 0,11.0625 -2.125,0 0,17.0625 15.40625,0 0,-17.0625 -2.15625,0 0,-11.0625 -11.125,0 0,0"
       id="path3255"
       inkscape:connector-curvature="0" />
    <path
       style="fill:none;stroke:#000000"
       d="m 464.52484,132.28905 0,0"
       id="path3257"
       inkscape:connector-curvature="0" />
    <path
       style="fill:none;stroke:#000000"
       d="m 432.64092,127.22442 10.12925,0 0,10.12926 -10.12925,0 0,-10.12926"
       id="path3259"
       inkscape:connector-curvature="0" />
    <path
       style="fill:none;stroke:#000000"
       d="m 495.63873,79.076849 c 0,14.809496 -12.00741,26.814971 -26.81929,26.814971"
       id="path3261"
       inkscape:connector-curvature="0" />
    <path
       style="fill:none;stroke:#000000"
       d="m 468.81944,105.89182 c -14.8119,0 -26.8193,-12.005475 -26.8193,-26.814971"
       id="path3263"
       inkscape:connector-curvature="0" />
    <path
       style="fill:none;stroke:#000000"
       d="m 442.00014,79.076849 c 0,-14.809504 12.0074,-26.814969 26.8193,-26.814969"
       id="path3265"
       inkscape:connector-curvature="0" />
    <path
       style="fill:none;stroke:#000000"
       d="m 468.81944,52.26188 c 14.81188,0 26.81929,12.005465 26.81929,26.814969"
       id="path3267"
       inkscape:connector-curvature="0" />
    <path
       style="fill:none;stroke:#000000"
       d="m 452.69076,229.66424 0,11.0625 -2.125,0 0,17.0625 15.40625,0 0,-17.0625 -2.15625,0 0,-11.0625 -11.125,0 0,0"
       id="path3269"
       inkscape:connector-curvature="0" />
    <path
       style="fill:none;stroke:#000000"
       d="m 495.63873,79.076849 0,0"
       id="path3271"
       inkscape:connector-curvature="0" />
    <path
       style="fill:none;stroke:#000000"
       d="m 463.75481,74.012219 10.12925,0 0,10.129259 -10.12925,0 0,-10.129259"
       id="path3273"
       inkscape:connector-curvature="0" />
    <path
       style="fill:none;stroke:#000000"
       d="m 436.10093,78.168409 c 0,14.809496 -12.00741,26.814971 -26.81929,26.814971"
       id="path3275"
       inkscape:connector-curvature="0" />
    <path
       style="fill:none;stroke:#000000"
       d="m 409.28164,104.98338 c -14.8119,0 -26.8193,-12.005475 -26.8193,-26.814971"
       id="path3277"
       inkscape:connector-curvature="0" />
    <path
       style="fill:none;stroke:#000000"
       d="m 382.46234,78.168409 c 0,-14.809504 12.0074,-26.814969 26.8193,-26.814969"
       id="path3279"
       inkscape:connector-curvature="0" />
    <path
       style="fill:none;stroke:#000000"
       d="m 409.28164,51.35344 c 14.81188,0 26.81929,12.005465 26.81929,26.814969"
       id="path3281"
       inkscape:connector-curvature="0" />
    <path
       style="fill:none;stroke:#000000"
       d="m 392.8728,271.17272 0,11.0625 -2.125,0 0,17.0625 15.40625,0 0,-17.0625 -2.15625,0 0,-11.0625 -11.125,0 0,0"
       id="path3283"
       inkscape:connector-curvature="0" />
    <path
       style="fill:none;stroke:#000000"
       d="m 436.10093,78.168409 0,0"
       id="path3285"
       inkscape:connector-curvature="0" />
    <path
       style="fill:none;stroke:#000000"
       d="m 404.21701,73.103779 10.12925,0 0,10.129263 -10.12925,0 0,-10.129263"
       id="path3287"
       inkscape:connector-curvature="0" />
    <path
       style="fill:none;stroke:#000000"
       d="m 423.00391,271.52723 0,11.0625 -2.125,0 0,17.0625 15.40625,0 0,-17.0625 -2.15625,0 0,-11.0625 -11.125,0 0,0"
       id="path3289"
       inkscape:connector-curvature="0" />
    <path
       style="fill:none;stroke:#000000"
       d="m 27.815,188.80031 0.334892,-141.658732 15.21765,2.91e-4 0.111628,10.457142 67.51392,0 0,-10.457209 180.66554,4.67e-4 0,10.456742 67.70189,0.0627 0.0777,-10.660301 15.16488,0.14085 0.002,141.14504 -8.68174,5.41841 -37.77929,-65.77253 -8.54152,4.9524 -4.06766,-6.32793 -6.52851,-3.85514 4.61947,-8.36763 -58.44195,-33.906631 -5.07523,8.549412 -7.06328,-3.757362 -8.09055,-0.266279 0.18121,-9.576248 -67.42099,0.1174 -0.15758,9.690339 -8.32448,-6.09e-4 -7.39771,3.86697 -5.03926,-8.221741 -58.659211,33.467819 4.852279,8.36499 -6.469518,3.81402 -4.31533,6.10068 -8.091528,-4.65313 -38.212682,65.62484 -8.08504,-4.74904"
       id="path3291"
       inkscape:connector-curvature="0" />
    <path
       style="fill:none;stroke:#000000"
       d="m 324.74251,99.235439 35.07779,0 0,-17.360448 -35.07779,0 0,17.360448"
       id="path3293"
       inkscape:connector-curvature="0" />
    <path
       style="fill:none;stroke:#000000"
       d="m 77.817221,99.235439 -35.077791,0 0,-17.360448 35.077791,0 0,17.360448"
       id="path3295"
       inkscape:connector-curvature="0" />
    <path
       style="fill:none;stroke:#000000"
       d="m 456.96896,335.6164 c 0,14.8095 -12.00741,26.81497 -26.8193,26.81497"
       id="path3297"
       inkscape:connector-curvature="0" />
    <path
       style="fill:none;stroke:#000000"
       d="m 430.14966,362.43137 c -14.81188,0 -26.81929,-12.00547 -26.81929,-26.81497"
       id="path3299"
       inkscape:connector-curvature="0" />
    <path
       style="fill:none;stroke:#000000"
       d="m 403.33037,335.6164 c 0,-14.8095 12.00741,-26.81497 26.81929,-26.81497"
       id="path3301"
       inkscape:connector-curvature="0" />
    <path
       style="fill:none;stroke:#000000"
       d="m 430.14966,308.80143 c 14.81189,0 26.8193,12.00547 26.8193,26.81497"
       id="path3303"
       inkscape:connector-curvature="0" />
    <path
       style="fill:none;stroke:#000000"
       d="m 450.78864,271.52723 0,11.0625 -2.125,0 0,17.0625 15.40625,0 0,-17.0625 -2.15625,0 0,-11.0625 -11.125,0 0,0"
       id="path3305"
       inkscape:connector-curvature="0" />
    <path
       style="fill:none;stroke:#000000"
       d="m 456.96896,335.6164 0,0"
       id="path3307"
       inkscape:connector-curvature="0" />
    <path
       style="fill:none;stroke:#000000"
       d="m 425.08504,330.55177 10.12925,0 0,10.12926 -10.12925,0 0,-10.12926"
       id="path3309"
       inkscape:connector-curvature="0" />
  </g>
</svg>
