  0
SECTION
  2
HEADER
  9
$ACADVER
  1
AC1014
  9
$HANDSEED
  5
FFFF
  9
$MEASUREMENT
 70
     1
  0
ENDSEC
  0
SECTION
  2
TABLES
  0
TABLE
  2
VPORT
  5
8
330
0
100
AcDbSymbolTable
 70
     4
  0
VPORT
  5
2E
330
8
100
AcDbSymbolTableRecord
100
AcDbViewportTableRecord
  2
*ACTIVE
 70
     0
 10
0.0
 20
0.0
 11
1.0
 21
1.0
 12
210.0
 22
148.5
 13
0.0
 23
0.0
 14
10.0
 24
10.0
 15
10.0
 25
10.0
 16
0.0
 26
0.0
 36
1.0
 17
0.0
 27
0.0
 37
0.0
 40
341.0
 41
1.24
 42
50.0
 43
0.0
 44
0.0
 50
0.0
 51
0.0
 71
     0
 72
   100
 73
     1
 74
     3
 75
     0
 76
     0
 77
     0
 78
     0
  0
ENDTAB
  0
TABLE
  2
LTYPE
  5
5
330
0
100
AcDbSymbolTable
 70
     1
  0
LTYPE
  5
14
330
5
100
AcDbSymbolTableRecord
100
AcDbLinetypeTableRecord
  2
BYBLOCK
 70
     0
  3

 72
    65
 73
     0
 40
0.0
  0
LTYPE
  5
15
330
5
100
AcDbSymbolTableRecord
100
AcDbLinetypeTableRecord
  2
BYLAYER
 70
     0
  3

 72
    65
 73
     0
 40
0.0
  0
LTYPE
  5
16
330
5
100
AcDbSymbolTableRecord
100
AcDbLinetypeTableRecord
  2
CONTINUOUS
 70
     0
  3
Solid line
 72
    65
 73
     0
 40
0.0
  0
ENDTAB
  0
TABLE
  2
LAYER
  5
2
100
AcDbSymbolTable
 70
2
  0
LAYER
  5
50
100
AcDbSymbolTableRecord
100
AcDbLayerTableRecord
  2
0
 70
0
  6
CONTINUOUS
  0
LAYER
  5
51
100
AcDbSymbolTableRecord
100
AcDbLayerTableRecord
  2
Layer_1
 70
0
  6
CONTINUOUS
  0
ENDTAB
  0
TABLE
  2
STYLE
  5
3
330
0
100
AcDbSymbolTable
 70
     1
  0
STYLE
  5
11
330
3
100
AcDbSymbolTableRecord
100
AcDbTextStyleTableRecord
  2
STANDARD
 70
     0
 40
0.0
 41
1.0
 50
0.0
 71
     0
 42
2.5
  3
txt
  4

  0
ENDTAB
  0
TABLE
  2
VIEW
  5
6
330
0
100
AcDbSymbolTable
 70
     0
  0
ENDTAB
  0
TABLE
  2
UCS
  5
7
330
0
100
AcDbSymbolTable
 70
     0
  0
ENDTAB
  0
TABLE
  2
APPID
  5
9
330
0
100
AcDbSymbolTable
 70
     2
  0
APPID
  5
12
330
9
100
AcDbSymbolTableRecord
100
AcDbRegAppTableRecord
  2
ACAD
 70
     0
  0
ENDTAB
  0
TABLE
  2
DIMSTYLE
  5
A
330
0
100
AcDbSymbolTable
 70
     1
  0
DIMSTYLE
105
27
330
A
100
AcDbSymbolTableRecord
100
AcDbDimStyleTableRecord
  2
ISO-25
 70
     0
  3

  4

  5

  6

  7

 40
1.0
 41
2.5
 42
0.625
 43
3.75
 44
1.25
 45
0.0
 46
0.0
 47
0.0
 48
0.0
140
2.5
141
2.5
142
0.0
143
0.03937007874016
144
1.0
145
0.0
146
1.0
147
0.625
 71
     0
 72
     0
 73
     0
 74
     0
 75
     0
 76
     0
 77
     1
 78
     8
170
     0
171
     3
172
     1
173
     0
174
     0
175
     0
176
     0
177
     0
178
     0
270
     2
271
     2
272
     2
273
     2
274
     3
340
11
275
     0
280
     0
281
     0
282
     0
283
     0
284
     8
285
     0
286
     0
287
     3
288
     0
  0
ENDTAB
  0
TABLE
  2
BLOCK_RECORD
  5
1
330
0
100
AcDbSymbolTable
 70
     1
  0
BLOCK_RECORD
  5
1F
330
1
100
AcDbSymbolTableRecord
100
AcDbBlockTableRecord
  2
*MODEL_SPACE
  0
BLOCK_RECORD
  5
1B
330
1
100
AcDbSymbolTableRecord
100
AcDbBlockTableRecord
  2
*PAPER_SPACE
  0
ENDTAB
  0
ENDSEC
  0
SECTION
  2
BLOCKS
  0
BLOCK
  5
20
330
1F
100
AcDbEntity
  8
0
100
AcDbBlockBegin
  2
*MODEL_SPACE
 70
     0
 10
0.0
 20
0.0
 30
0.0
  3
*MODEL_SPACE
  1

  0
ENDBLK
  5
21
330
1F
100
AcDbEntity
  8
0
100
AcDbBlockEnd
  0
BLOCK
  5
1C
330
1B
100
AcDbEntity
 67
     1
  8
0
100
AcDbBlockBegin
  2
*PAPER_SPACE
  1

  0
ENDBLK
  5
1D
330
1B
100
AcDbEntity
 67
     1
  8
0
100
AcDbBlockEnd
  0
ENDSEC
  0
SECTION
  2
ENTITIES
  0
LWPOLYLINE
  5
100
100
AcDbEntity
  8
Layer_1
 62
7
100
AcDbPolyline
 90
5
 70
0
 10
36.868471
 20
226.199255
 30
0.0
 10
52.228472
 20
226.199255
 30
0.0
 10
52.228472
 20
213.539502
 30
0.0
 10
36.868471
 20
213.539502
 30
0.0
 10
36.868471
 20
226.199255
 30
0.0
  0
LWPOLYLINE
  5
101
100
AcDbEntity
  8
Layer_1
 62
7
100
AcDbPolyline
 90
13
 70
0
 10
34.864191
 20
229.341449
 30
0.0
 10
34.864027
 20
226.336688
 30
0.0
 10
32.775473
 20
226.336440
 30
0.0
 10
32.775473
 20
213.392769
 30
0.0
 10
34.872914
 20
213.392487
 30
0.0
 10
34.872914
 20
210.397449
 30
0.0
 10
54.224006
 20
210.397449
 30
0.0
 10
54.224006
 20
213.402410
 30
0.0
 10
56.321470
 20
213.402410
 30
0.0
 10
56.321470
 20
226.346456
 30
0.0
 10
54.232826
 20
226.346456
 30
0.0
 10
54.232938
 20
229.341189
 30
0.0
 10
34.864191
 20
229.341449
 30
0.0
  0
LWPOLYLINE
  5
102
100
AcDbEntity
  8
Layer_1
 62
7
100
AcDbPolyline
 90
5
 70
0
 10
82.453610
 20
242.315872
 30
0.0
 10
87.293111
 20
242.315872
 30
0.0
 10
87.293111
 20
237.474352
 30
0.0
 10
82.453610
 20
237.474352
 30
0.0
 10
82.453610
 20
242.315872
 30
0.0
  0
LWPOLYLINE
  5
103
100
AcDbEntity
  8
Layer_1
 62
7
100
AcDbPolyline
 90
13
 70
0
 10
75.189080
 20
249.366344
 30
0.0
 10
75.188916
 20
246.361584
 30
0.0
 10
73.100362
 20
246.361335
 30
0.0
 10
73.100362
 20
233.418664
 30
0.0
 10
75.197803
 20
233.418381
 30
0.0
 10
75.197803
 20
230.423343
 30
0.0
 10
94.548895
 20
230.423301
 30
0.0
 10
94.548895
 20
233.428304
 30
0.0
 10
96.646359
 20
233.428304
 30
0.0
 10
96.646359
 20
246.371351
 30
0.0
 10
94.557715
 20
246.371351
 30
0.0
 10
94.557827
 20
249.366920
 30
0.0
 10
75.189080
 20
249.366344
 30
0.0
  0
LWPOLYLINE
  5
104
100
AcDbEntity
  8
Layer_1
 62
7
100
AcDbPolyline
 90
35
 70
0
 10
8.562871
 20
236.014792
 30
0.0
 10
8.657384
 20
196.035550
 30
0.0
 10
12.952284
 20
196.035632
 30
0.0
 10
12.983789
 20
198.986869
 30
0.0
 10
32.037717
 20
198.986869
 30
0.0
 10
32.037717
 20
196.035612
 30
0.0
 10
83.025547
 20
196.035745
 30
0.0
 10
83.025547
 20
198.986869
 30
0.0
 10
102.132525
 20
199.004565
 30
0.0
 10
102.154454
 20
195.995991
 30
0.0
 10
106.434179
 20
196.035742
 30
0.0
 10
106.434743
 20
235.870009
 30
0.0
 10
103.984563
 20
237.399205
 30
0.0
 10
93.322408
 20
218.836735
 30
0.0
 10
90.911801
 20
220.234413
 30
0.0
 10
89.763817
 20
218.448530
 30
0.0
 10
87.921326
 20
217.360524
 30
0.0
 10
89.225044
 20
214.998993
 30
0.0
 10
72.731428
 20
205.429788
 30
0.0
 10
71.299085
 20
207.842622
 30
0.0
 10
69.305671
 20
206.782211
 30
0.0
 10
67.022337
 20
206.707061
 30
0.0
 10
67.073478
 20
204.004431
 30
0.0
 10
48.045776
 20
204.037564
 30
0.0
 10
48.001303
 20
206.772393
 30
0.0
 10
45.651949
 20
206.772221
 30
0.0
 10
43.564154
 20
207.863566
 30
0.0
 10
42.141961
 20
205.543208
 30
0.0
 10
25.587029
 20
214.988570
 30
0.0
 10
26.956450
 20
217.349356
 30
0.0
 10
25.130608
 20
218.425758
 30
0.0
 10
23.912726
 20
220.147505
 30
0.0
 10
21.629116
 20
218.834288
 30
0.0
 10
10.844649
 20
237.355077
 30
0.0
 10
8.562871
 20
236.014792
 30
0.0
  0
LWPOLYLINE
  5
105
100
AcDbEntity
  8
Layer_1
 62
7
100
AcDbPolyline
 90
5
 70
0
 10
92.362412
 20
210.737595
 30
0.0
 10
102.262144
 20
210.737595
 30
0.0
 10
102.262144
 20
205.838090
 30
0.0
 10
92.362412
 20
205.838090
 30
0.0
 10
92.362412
 20
210.737595
 30
0.0
  0
SPLINE
  5
106
100
AcDbEntity
  8
Layer_1
 62
7
100
AcDbSpline
 70
8
 71
3
 72
8
 73
4
 74
0
 40
0
 40
0
 40
0
 40
0
 40
1
 40
1
 40
1
 40
1
 10
140.372569
 20
244.340381
 30
0.0
 10
140.372569
 20
240.160813
 30
0.0
 10
136.983811
 20
236.772601
 30
0.0
 10
132.803568
 20
236.772601
 30
0.0
  0
SPLINE
  5
107
100
AcDbEntity
  8
Layer_1
 62
7
100
AcDbSpline
 70
8
 71
3
 72
8
 73
4
 74
0
 40
0
 40
0
 40
0
 40
0
 40
1
 40
1
 40
1
 40
1
 10
132.803568
 20
236.772601
 30
0.0
 10
128.623324
 20
236.772601
 30
0.0
 10
125.234568
 20
240.160813
 30
0.0
 10
125.234568
 20
244.340381
 30
0.0
  0
SPLINE
  5
108
100
AcDbEntity
  8
Layer_1
 62
7
100
AcDbSpline
 70
8
 71
3
 72
8
 73
4
 74
0
 40
0
 40
0
 40
0
 40
0
 40
1
 40
1
 40
1
 40
1
 10
125.234568
 20
244.340381
 30
0.0
 10
125.234568
 20
248.519953
 30
0.0
 10
128.623324
 20
251.908162
 30
0.0
 10
132.803568
 20
251.908162
 30
0.0
  0
SPLINE
  5
109
100
AcDbEntity
  8
Layer_1
 62
7
100
AcDbSpline
 70
8
 71
3
 72
8
 73
4
 74
0
 40
0
 40
0
 40
0
 40
0
 40
1
 40
1
 40
1
 40
1
 10
132.803568
 20
251.908162
 30
0.0
 10
136.983811
 20
251.908162
 30
0.0
 10
140.372569
 20
248.519953
 30
0.0
 10
140.372569
 20
244.340381
 30
0.0
  0
LWPOLYLINE
  5
10a
100
AcDbEntity
  8
Layer_1
 62
7
100
AcDbPolyline
 90
5
 70
0
 10
22.674608
 20
210.737595
 30
0.0
 10
12.774876
 20
210.737595
 30
0.0
 10
12.774876
 20
205.838090
 30
0.0
 10
22.674608
 20
205.838090
 30
0.0
 10
22.674608
 20
210.737595
 30
0.0
  0
LWPOLYLINE
  5
10b
100
AcDbEntity
  8
Layer_1
 62
7
100
AcDbPolyline
 90
2
 70
0
 10
140.372569
 20
244.340381
 30
0.0
 10
140.372569
 20
244.340381
 30
0.0
  0
LWPOLYLINE
  5
10c
100
AcDbEntity
  8
Layer_1
 62
7
100
AcDbPolyline
 90
5
 70
0
 10
131.374219
 20
245.769732
 30
0.0
 10
134.232918
 20
245.769732
 30
0.0
 10
134.232918
 20
242.911030
 30
0.0
 10
131.374219
 20
242.911030
 30
0.0
 10
131.374219
 20
245.769732
 30
0.0
  0
LWPOLYLINE
  5
10d
100
AcDbEntity
  8
Layer_1
 62
7
100
AcDbPolyline
 90
10
 70
0
 10
111.369740
 20
231.829016
 30
0.0
 10
111.369740
 20
228.706933
 30
0.0
 10
110.770018
 20
228.706933
 30
0.0
 10
110.770018
 20
223.891516
 30
0.0
 10
115.118004
 20
223.891516
 30
0.0
 10
115.118004
 20
228.706933
 30
0.0
 10
114.509463
 20
228.706933
 30
0.0
 10
114.509463
 20
231.829016
 30
0.0
 10
111.369740
 20
231.829016
 30
0.0
 10
111.369740
 20
231.829016
 30
0.0
  0
LWPOLYLINE
  5
10e
100
AcDbEntity
  8
Layer_1
 62
7
100
AcDbPolyline
 90
5
 70
0
 10
26.389638
 20
242.424561
 30
0.0
 10
31.229139
 20
242.424561
 30
0.0
 10
31.229139
 20
237.583042
 30
0.0
 10
26.389638
 20
237.583042
 30
0.0
 10
26.389638
 20
242.424561
 30
0.0
  0
LWPOLYLINE
  5
10f
100
AcDbEntity
  8
Layer_1
 62
7
100
AcDbPolyline
 90
13
 70
0
 10
19.125108
 20
249.475034
 30
0.0
 10
19.124944
 20
246.470273
 30
0.0
 10
17.036390
 20
246.470025
 30
0.0
 10
17.036390
 20
233.527353
 30
0.0
 10
19.133831
 20
233.527071
 30
0.0
 10
19.133831
 20
230.532033
 30
0.0
 10
38.484923
 20
230.531990
 30
0.0
 10
38.484923
 20
233.536994
 30
0.0
 10
40.582387
 20
233.536994
 30
0.0
 10
40.582387
 20
246.480041
 30
0.0
 10
38.493742
 20
246.480041
 30
0.0
 10
38.493855
 20
249.475609
 30
0.0
 10
19.125108
 20
249.475034
 30
0.0
  0
LWPOLYLINE
  5
110
100
AcDbEntity
  8
Layer_1
 62
7
100
AcDbPolyline
 90
5
 70
0
 10
48.946485
 20
246.407495
 30
0.0
 10
64.306486
 20
246.407495
 30
0.0
 10
64.306486
 20
233.747743
 30
0.0
 10
48.946485
 20
233.747743
 30
0.0
 10
48.946485
 20
246.407495
 30
0.0
  0
LWPOLYLINE
  5
111
100
AcDbEntity
  8
Layer_1
 62
7
100
AcDbPolyline
 90
13
 70
0
 10
46.942205
 20
249.549690
 30
0.0
 10
46.942041
 20
246.544929
 30
0.0
 10
44.853486
 20
246.544681
 30
0.0
 10
44.853486
 20
233.601010
 30
0.0
 10
46.950928
 20
233.600728
 30
0.0
 10
46.950928
 20
230.605690
 30
0.0
 10
66.302020
 20
230.605690
 30
0.0
 10
66.302020
 20
233.610651
 30
0.0
 10
68.399484
 20
233.610651
 30
0.0
 10
68.399484
 20
246.554697
 30
0.0
 10
66.310839
 20
246.554697
 30
0.0
 10
66.310952
 20
249.549430
 30
0.0
 10
46.942205
 20
249.549690
 30
0.0
  0
LWPOLYLINE
  5
112
100
AcDbEntity
  8
Layer_1
 62
7
100
AcDbPolyline
 90
5
 70
0
 10
37.093824
 20
266.589057
 30
0.0
 10
52.453825
 20
266.589057
 30
0.0
 10
52.453825
 20
253.929305
 30
0.0
 10
37.093824
 20
253.929305
 30
0.0
 10
37.093824
 20
266.589057
 30
0.0
  0
LWPOLYLINE
  5
113
100
AcDbEntity
  8
Layer_1
 62
7
100
AcDbPolyline
 90
13
 70
0
 10
35.089544
 20
269.731251
 30
0.0
 10
35.089380
 20
266.726491
 30
0.0
 10
33.000826
 20
266.726242
 30
0.0
 10
33.000826
 20
253.782572
 30
0.0
 10
35.098268
 20
253.782289
 30
0.0
 10
35.098268
 20
250.787251
 30
0.0
 10
54.449359
 20
250.787251
 30
0.0
 10
54.449359
 20
253.792212
 30
0.0
 10
56.546823
 20
253.792212
 30
0.0
 10
56.546823
 20
266.736258
 30
0.0
 10
54.458179
 20
266.736258
 30
0.0
 10
54.458291
 20
269.730992
 30
0.0
 10
35.089544
 20
269.731251
 30
0.0
  0
LWPOLYLINE
  5
114
100
AcDbEntity
  8
Layer_1
 62
7
100
AcDbPolyline
 90
5
 70
0
 10
61.713676
 20
266.143521
 30
0.0
 10
77.073677
 20
266.143521
 30
0.0
 10
77.073677
 20
253.483769
 30
0.0
 10
61.713676
 20
253.483769
 30
0.0
 10
61.713676
 20
266.143521
 30
0.0
  0
LWPOLYLINE
  5
115
100
AcDbEntity
  8
Layer_1
 62
7
100
AcDbPolyline
 90
13
 70
0
 10
59.709396
 20
269.285716
 30
0.0
 10
59.709232
 20
266.280955
 30
0.0
 10
57.620678
 20
266.280707
 30
0.0
 10
57.620678
 20
253.337036
 30
0.0
 10
59.718119
 20
253.336754
 30
0.0
 10
59.718119
 20
250.341716
 30
0.0
 10
79.069211
 20
250.341716
 30
0.0
 10
79.069211
 20
253.346677
 30
0.0
 10
81.166675
 20
253.346677
 30
0.0
 10
81.166675
 20
266.290723
 30
0.0
 10
79.078030
 20
266.290723
 30
0.0
 10
79.078143
 20
269.285456
 30
0.0
 10
59.709396
 20
269.285716
 30
0.0
  0
LWPOLYLINE
  5
116
100
AcDbEntity
  8
Layer_1
 62
7
100
AcDbPolyline
 90
5
 70
0
 10
61.658590
 20
225.940704
 30
0.0
 10
77.018591
 20
225.940704
 30
0.0
 10
77.018591
 20
213.280952
 30
0.0
 10
61.658590
 20
213.280952
 30
0.0
 10
61.658590
 20
225.940704
 30
0.0
  0
SPLINE
  5
117
100
AcDbEntity
  8
Layer_1
 62
7
100
AcDbSpline
 70
8
 71
3
 72
8
 73
4
 74
0
 40
0
 40
0
 40
0
 40
0
 40
1
 40
1
 40
1
 40
1
 10
123.380070
 20
244.578851
 30
0.0
 10
123.380070
 20
240.399282
 30
0.0
 10
119.991312
 20
237.011070
 30
0.0
 10
115.811070
 20
237.011070
 30
0.0
  0
SPLINE
  5
118
100
AcDbEntity
  8
Layer_1
 62
7
100
AcDbSpline
 70
8
 71
3
 72
8
 73
4
 74
0
 40
0
 40
0
 40
0
 40
0
 40
1
 40
1
 40
1
 40
1
 10
115.811070
 20
237.011070
 30
0.0
 10
111.630825
 20
237.011070
 30
0.0
 10
108.242070
 20
240.399282
 30
0.0
 10
108.242070
 20
244.578851
 30
0.0
  0
SPLINE
  5
119
100
AcDbEntity
  8
Layer_1
 62
7
100
AcDbSpline
 70
8
 71
3
 72
8
 73
4
 74
0
 40
0
 40
0
 40
0
 40
0
 40
1
 40
1
 40
1
 40
1
 10
108.242070
 20
244.578851
 30
0.0
 10
108.242070
 20
248.758422
 30
0.0
 10
111.630825
 20
252.146631
 30
0.0
 10
115.811070
 20
252.146631
 30
0.0
  0
SPLINE
  5
11a
100
AcDbEntity
  8
Layer_1
 62
7
100
AcDbSpline
 70
8
 71
3
 72
8
 73
4
 74
0
 40
0
 40
0
 40
0
 40
0
 40
1
 40
1
 40
1
 40
1
 10
115.811070
 20
252.146631
 30
0.0
 10
119.991312
 20
252.146631
 30
0.0
 10
123.380070
 20
248.758422
 30
0.0
 10
123.380070
 20
244.578851
 30
0.0
  0
LWPOLYLINE
  5
11b
100
AcDbEntity
  8
Layer_1
 62
7
100
AcDbPolyline
 90
13
 70
0
 10
59.654310
 20
229.082899
 30
0.0
 10
59.654146
 20
226.078138
 30
0.0
 10
57.565592
 20
226.077889
 30
0.0
 10
57.565592
 20
213.134219
 30
0.0
 10
59.663033
 20
213.133937
 30
0.0
 10
59.663033
 20
210.138898
 30
0.0
 10
79.014125
 20
210.138898
 30
0.0
 10
79.014125
 20
213.143859
 30
0.0
 10
81.111589
 20
213.143859
 30
0.0
 10
81.111589
 20
226.087905
 30
0.0
 10
79.022944
 20
226.087905
 30
0.0
 10
79.023057
 20
229.082639
 30
0.0
 10
59.654310
 20
229.082899
 30
0.0
  0
LWPOLYLINE
  5
11c
100
AcDbEntity
  8
Layer_1
 62
7
100
AcDbPolyline
 90
2
 70
0
 10
123.380070
 20
244.578851
 30
0.0
 10
123.380070
 20
244.578851
 30
0.0
  0
LWPOLYLINE
  5
11d
100
AcDbEntity
  8
Layer_1
 62
7
100
AcDbPolyline
 90
5
 70
0
 10
114.381720
 20
246.008202
 30
0.0
 10
117.240420
 20
246.008202
 30
0.0
 10
117.240420
 20
243.149500
 30
0.0
 10
114.381720
 20
243.149500
 30
0.0
 10
114.381720
 20
246.008202
 30
0.0
  0
SPLINE
  5
11e
100
AcDbEntity
  8
Layer_1
 62
7
100
AcDbSpline
 70
8
 71
3
 72
8
 73
4
 74
0
 40
0
 40
0
 40
0
 40
0
 40
1
 40
1
 40
1
 40
1
 10
131.099232
 20
259.665090
 30
0.0
 10
131.099232
 20
255.485522
 30
0.0
 10
127.710474
 20
252.097310
 30
0.0
 10
123.530232
 20
252.097310
 30
0.0
  0
SPLINE
  5
11f
100
AcDbEntity
  8
Layer_1
 62
7
100
AcDbSpline
 70
8
 71
3
 72
8
 73
4
 74
0
 40
0
 40
0
 40
0
 40
0
 40
1
 40
1
 40
1
 40
1
 10
123.530232
 20
252.097310
 30
0.0
 10
119.349987
 20
252.097310
 30
0.0
 10
115.961232
 20
255.485522
 30
0.0
 10
115.961232
 20
259.665090
 30
0.0
  0
SPLINE
  5
120
100
AcDbEntity
  8
Layer_1
 62
7
100
AcDbSpline
 70
8
 71
3
 72
8
 73
4
 74
0
 40
0
 40
0
 40
0
 40
0
 40
1
 40
1
 40
1
 40
1
 10
115.961232
 20
259.665090
 30
0.0
 10
115.961232
 20
263.844662
 30
0.0
 10
119.349987
 20
267.232871
 30
0.0
 10
123.530232
 20
267.232871
 30
0.0
  0
SPLINE
  5
121
100
AcDbEntity
  8
Layer_1
 62
7
100
AcDbSpline
 70
8
 71
3
 72
8
 73
4
 74
0
 40
0
 40
0
 40
0
 40
0
 40
1
 40
1
 40
1
 40
1
 10
123.530232
 20
267.232871
 30
0.0
 10
127.710474
 20
267.232871
 30
0.0
 10
131.099232
 20
263.844662
 30
0.0
 10
131.099232
 20
259.665090
 30
0.0
  0
LWPOLYLINE
  5
122
100
AcDbEntity
  8
Layer_1
 62
7
100
AcDbPolyline
 90
10
 70
0
 10
119.683801
 20
232.067485
 30
0.0
 10
119.683801
 20
228.945402
 30
0.0
 10
119.084079
 20
228.945402
 30
0.0
 10
119.084079
 20
224.129985
 30
0.0
 10
123.432065
 20
224.129985
 30
0.0
 10
123.432065
 20
228.945402
 30
0.0
 10
122.823523
 20
228.945402
 30
0.0
 10
122.823523
 20
232.067485
 30
0.0
 10
119.683801
 20
232.067485
 30
0.0
 10
119.683801
 20
232.067485
 30
0.0
  0
LWPOLYLINE
  5
123
100
AcDbEntity
  8
Layer_1
 62
7
100
AcDbPolyline
 90
2
 70
0
 10
131.099232
 20
259.665090
 30
0.0
 10
131.099232
 20
259.665090
 30
0.0
  0
LWPOLYLINE
  5
124
100
AcDbEntity
  8
Layer_1
 62
7
100
AcDbPolyline
 90
5
 70
0
 10
122.100882
 20
261.094441
 30
0.0
 10
124.959581
 20
261.094441
 30
0.0
 10
124.959581
 20
258.235739
 30
0.0
 10
122.100882
 20
258.235739
 30
0.0
 10
122.100882
 20
261.094441
 30
0.0
  0
SPLINE
  5
125
100
AcDbEntity
  8
Layer_1
 62
7
100
AcDbSpline
 70
8
 71
3
 72
8
 73
4
 74
0
 40
0
 40
0
 40
0
 40
0
 40
1
 40
1
 40
1
 40
1
 10
139.880263
 20
274.682756
 30
0.0
 10
139.880263
 20
270.503187
 30
0.0
 10
136.491505
 20
267.114975
 30
0.0
 10
132.311263
 20
267.114975
 30
0.0
  0
SPLINE
  5
126
100
AcDbEntity
  8
Layer_1
 62
7
100
AcDbSpline
 70
8
 71
3
 72
8
 73
4
 74
0
 40
0
 40
0
 40
0
 40
0
 40
1
 40
1
 40
1
 40
1
 10
132.311263
 20
267.114975
 30
0.0
 10
128.131018
 20
267.114975
 30
0.0
 10
124.742263
 20
270.503187
 30
0.0
 10
124.742263
 20
274.682756
 30
0.0
  0
SPLINE
  5
127
100
AcDbEntity
  8
Layer_1
 62
7
100
AcDbSpline
 70
8
 71
3
 72
8
 73
4
 74
0
 40
0
 40
0
 40
0
 40
0
 40
1
 40
1
 40
1
 40
1
 10
124.742263
 20
274.682756
 30
0.0
 10
124.742263
 20
278.862327
 30
0.0
 10
128.131018
 20
282.250536
 30
0.0
 10
132.311263
 20
282.250536
 30
0.0
  0
SPLINE
  5
128
100
AcDbEntity
  8
Layer_1
 62
7
100
AcDbSpline
 70
8
 71
3
 72
8
 73
4
 74
0
 40
0
 40
0
 40
0
 40
0
 40
1
 40
1
 40
1
 40
1
 10
132.311263
 20
282.250536
 30
0.0
 10
136.491505
 20
282.250536
 30
0.0
 10
139.880263
 20
278.862327
 30
0.0
 10
139.880263
 20
274.682756
 30
0.0
  0
LWPOLYLINE
  5
129
100
AcDbEntity
  8
Layer_1
 62
7
100
AcDbPolyline
 90
10
 70
0
 10
127.759392
 20
232.183648
 30
0.0
 10
127.759392
 20
229.061564
 30
0.0
 10
127.159670
 20
229.061564
 30
0.0
 10
127.159670
 20
224.246148
 30
0.0
 10
131.507656
 20
224.246148
 30
0.0
 10
131.507656
 20
229.061564
 30
0.0
 10
130.899114
 20
229.061564
 30
0.0
 10
130.899114
 20
232.183648
 30
0.0
 10
127.759392
 20
232.183648
 30
0.0
 10
127.759392
 20
232.183648
 30
0.0
  0
LWPOLYLINE
  5
12a
100
AcDbEntity
  8
Layer_1
 62
7
100
AcDbPolyline
 90
2
 70
0
 10
139.880263
 20
274.682756
 30
0.0
 10
139.880263
 20
274.682756
 30
0.0
  0
LWPOLYLINE
  5
12b
100
AcDbEntity
  8
Layer_1
 62
7
100
AcDbPolyline
 90
5
 70
0
 10
130.881913
 20
276.112107
 30
0.0
 10
133.740612
 20
276.112107
 30
0.0
 10
133.740612
 20
273.253405
 30
0.0
 10
130.881913
 20
273.253405
 30
0.0
 10
130.881913
 20
276.112107
 30
0.0
  0
SPLINE
  5
12c
100
AcDbEntity
  8
Layer_1
 62
7
100
AcDbSpline
 70
8
 71
3
 72
8
 73
4
 74
0
 40
0
 40
0
 40
0
 40
0
 40
1
 40
1
 40
1
 40
1
 10
123.077373
 20
274.939138
 30
0.0
 10
123.077373
 20
270.759569
 30
0.0
 10
119.688615
 20
267.371357
 30
0.0
 10
115.508373
 20
267.371357
 30
0.0
  0
SPLINE
  5
12d
100
AcDbEntity
  8
Layer_1
 62
7
100
AcDbSpline
 70
8
 71
3
 72
8
 73
4
 74
0
 40
0
 40
0
 40
0
 40
0
 40
1
 40
1
 40
1
 40
1
 10
115.508373
 20
267.371357
 30
0.0
 10
111.328128
 20
267.371357
 30
0.0
 10
107.939372
 20
270.759569
 30
0.0
 10
107.939372
 20
274.939138
 30
0.0
  0
SPLINE
  5
12e
100
AcDbEntity
  8
Layer_1
 62
7
100
AcDbSpline
 70
8
 71
3
 72
8
 73
4
 74
0
 40
0
 40
0
 40
0
 40
0
 40
1
 40
1
 40
1
 40
1
 10
107.939372
 20
274.939138
 30
0.0
 10
107.939372
 20
279.118709
 30
0.0
 10
111.328128
 20
282.506918
 30
0.0
 10
115.508373
 20
282.506918
 30
0.0
  0
SPLINE
  5
12f
100
AcDbEntity
  8
Layer_1
 62
7
100
AcDbSpline
 70
8
 71
3
 72
8
 73
4
 74
0
 40
0
 40
0
 40
0
 40
0
 40
1
 40
1
 40
1
 40
1
 10
115.508373
 20
282.506918
 30
0.0
 10
119.688615
 20
282.506918
 30
0.0
 10
123.077373
 20
279.118709
 30
0.0
 10
123.077373
 20
274.939138
 30
0.0
  0
LWPOLYLINE
  5
130
100
AcDbEntity
  8
Layer_1
 62
7
100
AcDbPolyline
 90
10
 70
0
 10
110.877435
 20
220.469032
 30
0.0
 10
110.877435
 20
217.346949
 30
0.0
 10
110.277712
 20
217.346949
 30
0.0
 10
110.277712
 20
212.531532
 30
0.0
 10
114.625699
 20
212.531532
 30
0.0
 10
114.625699
 20
217.346949
 30
0.0
 10
114.017157
 20
217.346949
 30
0.0
 10
114.017157
 20
220.469032
 30
0.0
 10
110.877435
 20
220.469032
 30
0.0
 10
110.877435
 20
220.469032
 30
0.0
  0
LWPOLYLINE
  5
131
100
AcDbEntity
  8
Layer_1
 62
7
100
AcDbPolyline
 90
2
 70
0
 10
123.077373
 20
274.939138
 30
0.0
 10
123.077373
 20
274.939138
 30
0.0
  0
LWPOLYLINE
  5
132
100
AcDbEntity
  8
Layer_1
 62
7
100
AcDbPolyline
 90
5
 70
0
 10
114.079023
 20
276.368489
 30
0.0
 10
116.937722
 20
276.368489
 30
0.0
 10
116.937722
 20
273.509786
 30
0.0
 10
114.079023
 20
273.509786
 30
0.0
 10
114.079023
 20
276.368489
 30
0.0
  0
LWPOLYLINE
  5
133
100
AcDbEntity
  8
Layer_1
 62
7
100
AcDbPolyline
 90
10
 70
0
 10
119.381103
 20
220.368982
 30
0.0
 10
119.381103
 20
217.246898
 30
0.0
 10
118.781381
 20
217.246898
 30
0.0
 10
118.781381
 20
212.431482
 30
0.0
 10
123.129367
 20
212.431482
 30
0.0
 10
123.129367
 20
217.246898
 30
0.0
 10
122.520826
 20
217.246898
 30
0.0
 10
122.520826
 20
220.368982
 30
0.0
 10
119.381103
 20
220.368982
 30
0.0
 10
119.381103
 20
220.368982
 30
0.0
  0
LWPOLYLINE
  5
134
100
AcDbEntity
  8
Layer_1
 62
7
100
AcDbPolyline
 90
35
 70
0
 10
7.850011
 20
243.716357
 30
0.0
 10
7.944525
 20
283.695599
 30
0.0
 10
12.239284
 20
283.695517
 30
0.0
 10
12.270788
 20
280.744279
 30
0.0
 10
31.324717
 20
280.744279
 30
0.0
 10
31.324717
 20
283.695536
 30
0.0
 10
82.312547
 20
283.695404
 30
0.0
 10
82.312547
 20
280.744279
 30
0.0
 10
101.419525
 20
280.726584
 30
0.0
 10
101.441453
 20
283.735158
 30
0.0
 10
105.721319
 20
283.695407
 30
0.0
 10
105.721884
 20
243.861140
 30
0.0
 10
103.271704
 20
242.331944
 30
0.0
 10
92.609549
 20
260.894414
 30
0.0
 10
90.198942
 20
259.496736
 30
0.0
 10
89.050958
 20
261.282619
 30
0.0
 10
87.208466
 20
262.370625
 30
0.0
 10
88.512184
 20
264.732156
 30
0.0
 10
72.018568
 20
274.301361
 30
0.0
 10
70.586225
 20
271.888527
 30
0.0
 10
68.592811
 20
272.948938
 30
0.0
 10
66.309477
 20
273.024088
 30
0.0
 10
66.360618
 20
275.726718
 30
0.0
 10
47.332916
 20
275.693585
 30
0.0
 10
47.288444
 20
272.958756
 30
0.0
 10
44.939090
 20
272.958928
 30
0.0
 10
42.851294
 20
271.867583
 30
0.0
 10
41.429102
 20
274.187941
 30
0.0
 10
24.874169
 20
264.742579
 30
0.0
 10
26.243590
 20
262.381792
 30
0.0
 10
24.417748
 20
261.305391
 30
0.0
 10
23.199866
 20
259.583644
 30
0.0
 10
20.916257
 20
260.896861
 30
0.0
 10
10.131789
 20
242.376072
 30
0.0
 10
7.850011
 20
243.716357
 30
0.0
  0
LWPOLYLINE
  5
135
100
AcDbEntity
  8
Layer_1
 62
7
100
AcDbPolyline
 90
5
 70
0
 10
91.649553
 20
268.993554
 30
0.0
 10
101.549285
 20
268.993554
 30
0.0
 10
101.549285
 20
273.893058
 30
0.0
 10
91.649553
 20
273.893058
 30
0.0
 10
91.649553
 20
268.993554
 30
0.0
  0
LWPOLYLINE
  5
136
100
AcDbEntity
  8
Layer_1
 62
7
100
AcDbPolyline
 90
5
 70
0
 10
21.961749
 20
268.993554
 30
0.0
 10
12.062017
 20
268.993554
 30
0.0
 10
12.062017
 20
273.893058
 30
0.0
 10
21.961749
 20
273.893058
 30
0.0
 10
21.961749
 20
268.993554
 30
0.0
  0
SPLINE
  5
137
100
AcDbEntity
  8
Layer_1
 62
7
100
AcDbSpline
 70
8
 71
3
 72
8
 73
4
 74
0
 40
0
 40
0
 40
0
 40
0
 40
1
 40
1
 40
1
 40
1
 10
128.966795
 20
202.281594
 30
0.0
 10
128.966795
 20
198.102025
 30
0.0
 10
125.578037
 20
194.713813
 30
0.0
 10
121.397794
 20
194.713813
 30
0.0
  0
SPLINE
  5
138
100
AcDbEntity
  8
Layer_1
 62
7
100
AcDbSpline
 70
8
 71
3
 72
8
 73
4
 74
0
 40
0
 40
0
 40
0
 40
0
 40
1
 40
1
 40
1
 40
1
 10
121.397794
 20
194.713813
 30
0.0
 10
117.217550
 20
194.713813
 30
0.0
 10
113.828794
 20
198.102025
 30
0.0
 10
113.828794
 20
202.281594
 30
0.0
  0
SPLINE
  5
139
100
AcDbEntity
  8
Layer_1
 62
7
100
AcDbSpline
 70
8
 71
3
 72
8
 73
4
 74
0
 40
0
 40
0
 40
0
 40
0
 40
1
 40
1
 40
1
 40
1
 10
113.828794
 20
202.281594
 30
0.0
 10
113.828794
 20
206.461165
 30
0.0
 10
117.217550
 20
209.849374
 30
0.0
 10
121.397794
 20
209.849374
 30
0.0
  0
SPLINE
  5
13a
100
AcDbEntity
  8
Layer_1
 62
7
100
AcDbSpline
 70
8
 71
3
 72
8
 73
4
 74
0
 40
0
 40
0
 40
0
 40
0
 40
1
 40
1
 40
1
 40
1
 10
121.397794
 20
209.849374
 30
0.0
 10
125.578037
 20
209.849374
 30
0.0
 10
128.966795
 20
206.461165
 30
0.0
 10
128.966795
 20
202.281594
 30
0.0
  0
LWPOLYLINE
  5
13b
100
AcDbEntity
  8
Layer_1
 62
7
100
AcDbPolyline
 90
10
 70
0
 10
127.222572
 20
220.368982
 30
0.0
 10
127.222572
 20
217.246898
 30
0.0
 10
126.622850
 20
217.246898
 30
0.0
 10
126.622850
 20
212.431482
 30
0.0
 10
130.970836
 20
212.431482
 30
0.0
 10
130.970836
 20
217.246898
 30
0.0
 10
130.362294
 20
217.246898
 30
0.0
 10
130.362294
 20
220.368982
 30
0.0
 10
127.222572
 20
220.368982
 30
0.0
 10
127.222572
 20
220.368982
 30
0.0
  0
LWPOLYLINE
  5
13c
100
AcDbEntity
  8
Layer_1
 62
7
100
AcDbPolyline
 90
2
 70
0
 10
128.966795
 20
202.281594
 30
0.0
 10
128.966795
 20
202.281594
 30
0.0
  0
LWPOLYLINE
  5
13d
100
AcDbEntity
  8
Layer_1
 62
7
100
AcDbPolyline
 90
5
 70
0
 10
119.968445
 20
203.710945
 30
0.0
 10
122.827144
 20
203.710945
 30
0.0
 10
122.827144
 20
200.852243
 30
0.0
 10
119.968445
 20
200.852243
 30
0.0
 10
119.968445
 20
203.710945
 30
0.0
  0
ENDSEC
  0
SECTION
  2
OBJECTS
  0
DICTIONARY
  5
C
330
0
100
AcDbDictionary
  3
ACAD_GROUP
350
D
  3
ACAD_MLINESTYLE
350
17
  0
DICTIONARY
  5
D
330
C
100
AcDbDictionary
  0
DICTIONARY
  5
1A
330
C
100
AcDbDictionary
  0
DICTIONARY
  5
17
330
C
100
AcDbDictionary
  3
STANDARD
350
18
  0
DICTIONARY
  5
19
330
C
100
AcDbDictionary
  0
ENDSEC
  0
EOF
