<?xml version="1.0" encoding="UTF-8" standalone="no"?>
<svg
   xmlns:dc="http://purl.org/dc/elements/1.1/"
   xmlns:cc="http://creativecommons.org/ns#"
   xmlns:rdf="http://www.w3.org/1999/02/22-rdf-syntax-ns#"
   xmlns:svg="http://www.w3.org/2000/svg"
   xmlns="http://www.w3.org/2000/svg"
   xmlns:sodipodi="http://sodipodi.sourceforge.net/DTD/sodipodi-0.dtd"
   xmlns:inkscape="http://www.inkscape.org/namespaces/inkscape"
   width="1617.3895"
   height="1101.2704"
   id="svg3315"
   version="1.1"
   inkscape:version="0.48.5 r10040"
   sodipodi:docname="ladoshki2-m.dxf">
  <metadata
     id="metadata3355">
    <rdf:RDF>
      <cc:Work
         rdf:about="">
        <dc:format>image/svg+xml</dc:format>
        <dc:type
           rdf:resource="http://purl.org/dc/dcmitype/StillImage" />
        <dc:title></dc:title>
      </cc:Work>
    </rdf:RDF>
  </metadata>
  <sodipodi:namedview
     pagecolor="#ffffff"
     bordercolor="#666666"
     borderopacity="1"
     objecttolerance="10"
     gridtolerance="10"
     guidetolerance="10"
     inkscape:pageopacity="0"
     inkscape:pageshadow="2"
     inkscape:window-width="640"
     inkscape:window-height="480"
     id="namedview3353"
     showgrid="false"
     fit-margin-top="0"
     fit-margin-left="0"
     fit-margin-right="0"
     fit-margin-bottom="0"
     inkscape:zoom="0.056064348"
     inkscape:cx="-1149.2086"
     inkscape:cy="-847.04345"
     inkscape:window-x="0"
     inkscape:window-y="0"
     inkscape:window-maximized="0"
     inkscape:current-layer="g3335" />
  <desc
     id="desc3317">C:\OpenServer\domains\modular\design\ver1\wood\ladoshki2-m.dxf - scale = 1.000000</desc>
  <defs
     id="defs3319">
    <marker
       refY="0"
       refX="0"
       style="overflow:visible"
       id="DistanceX"
       orient="auto">
      <path
         style="stroke:#000000;stroke-width:0.5"
         d="M 3,-3 -3,3 M 0,-5 0,5"
         id="path3322"
         inkscape:connector-curvature="0" />
    </marker>
    <pattern
       height="8"
       width="8"
       patternUnits="userSpaceOnUse"
       y="0"
       x="0"
       id="Hatch">
      <path
         linecap="square"
         stroke="#000000"
         stroke-width="0.25"
         d="M8 4 l-4,4"
         id="path3325" />
      <path
         linecap="square"
         stroke="#000000"
         stroke-width="0.25"
         d="M6 2 l-4,4"
         id="path3327" />
      <path
         linecap="square"
         stroke="#000000"
         stroke-width="0.25"
         d="M4 0 l-4,4"
         id="path3329" />
    </pattern>
    <symbol
       id="*MODEL_SPACE" />
    <symbol
       id="*PAPER_SPACE" />
  </defs>
  <g
     inkscape:label="0"
     inkscape:groupmode="layer"
     id="g3333"
     transform="translate(-260.3716,1717.3957)" />
  <g
     inkscape:label="Layer_1"
     inkscape:groupmode="layer"
     id="g3335"
     transform="translate(-260.3716,1717.3957)">
    <path
       style="fill:none;stroke:#000000"
       d="m 302.84726,-939.33557 -0.23216,-86.21253 -41.73216,0 -0.0113,-38.9826 156.39429,0.025 -0.0601,38.9568 -40.45195,3e-4 0.61107,85.90834 39.76018,0.19417 0.12189,39.35577 -155.98239,-0.0527 -0.1216,-39.46391 41.70427,0.27088"
       id="path3337"
       inkscape:connector-curvature="0" />
    <path
       style="fill:none;stroke:#000000"
       d="m 1259.8781,-1136.7827 -114.2717,49.3405 -0.1772,0 19.9311,101.16144 -124.5472,27.46063 -27.0177,-112.14567 -27.46065,6.0236 -0.0887,0 15.59055,78.66144 -124.54724,27.37204 -26.84055,-113.47438 -0.17717,0 -27.1063,6.8208 -0.5315,0 15.67914,79.19295 -124.54725,27.37205 -27.37204,-112.4114 -0.0887,0 -27.01771,5.8464 -0.35433,0 15.85629,79.19295 -124.9607,27.28347 -27.46063,-113.38582 -32.95276,7.4409 -0.0887,39.4193 -39.15354,0 -0.0887,85.83664 39.15354,0.17717 0.44292,39.50787 768.51383,0 257.9528,-1.94882 0.5315,-69.44882 -39.4193,-0.35433 0.1771,-38.62201 39.9508,0.1771 -0.3543,-86.5452 -39.9508,0 0.2656,-39.7737 -217.4704,-0.1771 7e-4,0"
       id="path3339"
       inkscape:connector-curvature="0" />
    <path
       style="fill:none;stroke:#000000"
       d="m 1418.8713,-1716.8957 -114.2717,49.3406 -0.1771,0 19.9311,101.1614 -124.5473,27.4606 -27.0177,-112.1456 -27.4606,6.0236 -0.089,0 15.5905,78.6614 -124.5472,27.372 -26.8406,-113.4744 -0.1772,0 -27.10626,6.8209 -0.5315,0 15.67914,79.1929 -124.54725,27.372 -27.37204,-112.4114 -0.0887,0 -27.01771,5.8465 -0.35433,0 15.8563,79.1929 -124.54725,27.372 -27.90354,-113.2086 -27.01772,6.6437 -0.17716,0 16.12204,79.1043 -124.63582,27.3721 -27.46063,-113.3859 -32.95276,7.441 -0.0887,39.4193 -39.15355,0 -0.0887,85.8366 39.15354,0.1772 0.44292,39.5078 931.71258,0 458.8334,-1.9488 0.5315,-69.4488 -39.4193,-0.3543 0.1771,-38.6221 39.9508,0.1772 -0.3543,-86.5453 -39.9508,0 0.2656,-39.7736 -418.351,-0.1772 7e-4,0"
       id="path3341"
       inkscape:connector-curvature="0" />
    <path
       style="fill:none;stroke:#000000"
       d="m 307.27866,-1519.4485 -0.23216,-86.2126 -41.73216,0 -0.0113,-38.9826 156.39427,0.026 -0.0601,38.9568 -40.45195,3e-4 0.61106,85.9084 39.76019,0.1942 0.12189,39.3557 -155.98238,-0.053 -0.1216,-39.4639 41.70427,0.2709"
       id="path3343"
       inkscape:connector-curvature="0" />
    <path
       style="fill:none;stroke:#000000"
       d="m 1418.8713,-1202.4075 -114.2717,-49.3406 -0.1771,0 19.9311,-101.1614 -124.5473,-27.4606 -27.0177,112.1457 -27.4606,-6.0237 -0.089,0 15.5905,-78.6614 -124.5472,-27.372 -26.8406,113.4744 -0.1771,0 -27.10635,-6.8209 -0.53149,0 15.67913,-79.1929 -124.54724,-27.372 -27.37205,112.4114 -0.0887,0 -27.01772,-5.8465 -0.35433,0 15.8563,-79.1929 -124.54725,-27.372 -27.90354,113.2086 -27.01771,-6.6437 -0.17717,0 16.12205,-79.1043 -124.63583,-27.372 -27.46063,113.3858 -32.95276,-7.441 -0.0887,-39.4193 -39.15354,0 -0.0887,-85.8366 39.15355,-0.1771 0.44291,-39.5079 931.71267,0 458.8333,1.9488 0.5315,69.4488 -39.4193,0.3544 0.1772,38.622 39.9507,-0.1772 -0.3543,86.5453 -39.9508,0 0.2656,39.7736 -418.351,0.1772 7e-4,0"
       id="path3345"
       inkscape:connector-curvature="0" />
    <path
       style="fill:none;stroke:#000000"
       d="m 307.27867,-1399.8547 -0.23216,86.2126 -41.73216,0 -0.0113,38.9826 156.39428,-0.025 -0.0601,-38.9568 -40.45195,-3e-4 0.61107,-85.9084 39.76018,-0.1941 0.12189,-39.3558 -155.98237,0.053 -0.12161,39.4639 41.70427,-0.2709"
       id="path3347"
       inkscape:connector-curvature="0" />
    <path
       style="fill:none;stroke:#000000"
       d="m 302.84726,-814.07241 -0.23216,86.21255 -41.73216,0 -0.0113,38.98261 156.39429,-0.0255 -0.0601,-38.95679 -40.45195,-3.1e-4 0.61107,-85.90836 39.76018,-0.19418 0.12189,-39.35576 -155.98239,0.0527 -0.1216,39.46391 41.70427,-0.27088"
       id="path3349"
       inkscape:connector-curvature="0" />
    <path
       style="fill:none;stroke:#000000"
       d="m 1259.8781,-616.62525 -114.2717,-49.34055 -0.1772,0 19.9311,-101.16142 -124.5472,-27.46063 -27.0177,112.14567 -27.46065,-6.02362 -0.0887,0 15.59055,-78.66142 -124.54724,-27.37205 -26.84055,113.47442 -0.17717,0 -27.1063,-6.82087 -0.5315,0 15.67914,-79.19291 -124.54725,-27.37205 -27.37204,112.41141 -0.0887,0 -27.01771,-5.84645 -0.35433,0 15.85629,-79.19291 -124.9607,-27.28347 -27.46063,113.38583 -32.95276,-7.44095 -0.0887,-39.41929 -39.15354,0 -0.0887,-85.83661 39.15354,-0.17717 0.44292,-39.50787 768.51383,0 257.9528,1.94882 0.5315,69.44882 -39.4193,0.35433 0.1771,38.62204 39.9508,-0.17716 -0.3543,86.54527 -39.9508,0 0.2656,39.77363 -217.4704,0.17716 7e-4,0"
       id="path3351"
       inkscape:connector-curvature="0" />
  </g>
</svg>
